<svg width="20" height="21" viewBox="0 0 20 21" fill="none" xmlns="http://www.w3.org/2000/svg">
<path d="M7.11645 18.9846C7.40085 18.8635 7.60005 18.5836 7.60005 18.2578V16.1201C7.60005 16.0421 7.60645 15.9609 7.61645 15.8786C7.61085 15.8802 7.60565 15.8813 7.60005 15.8825C7.60005 15.8825 6.40005 15.8825 6.16005 15.8825C5.56005 15.8825 5.04005 15.645 4.80005 15.17C4.52005 14.6553 4.40005 13.7844 3.68005 13.3093C3.56005 13.2302 3.64005 13.1114 3.88005 13.1114C4.12005 13.151 4.64005 13.4677 4.96005 13.9031C5.32005 14.3386 5.68005 14.6949 6.32005 14.6949C7.31485 14.6949 7.84805 14.6454 8.16885 14.4752C8.54245 13.9253 9.05965 13.5073 9.60005 13.5073V13.4974C7.33285 13.4253 5.88445 12.6795 5.21005 11.5279C3.74405 11.5445 2.46765 11.6882 1.73925 11.8078C1.71605 11.6783 1.69605 11.5481 1.67885 11.417C2.39765 11.2999 3.61605 11.1609 5.01685 11.1344C4.97205 11.0251 4.93325 10.9131 4.90045 10.7983C3.49605 10.7278 2.28405 10.7829 1.62565 10.8367C1.61765 10.7053 1.60685 10.5742 1.60525 10.4412C2.26485 10.3878 3.44405 10.3343 4.81245 10.3973C4.78085 10.1993 4.76045 9.99704 4.76045 9.78643C4.76045 9.11344 5.00045 8.40086 5.44045 7.80705C5.24045 7.13406 4.96045 5.7089 5.52045 5.19427C6.60045 5.19427 7.36045 5.7089 7.72045 6.02561C8.40005 5.7481 9.16005 5.58975 10 5.58975C10.84 5.58975 11.6 5.7481 12.24 6.02521C12.6 5.70851 13.36 5.19387 14.44 5.19387C15.04 5.7481 14.72 7.17325 14.52 7.80665C14.96 8.40047 15.2 9.07346 15.16 9.78603C15.16 9.97764 15.142 10.1625 15.116 10.3438C16.5156 10.2757 17.7268 10.3304 18.3976 10.3842C18.3968 10.5176 18.3844 10.6479 18.3772 10.7797C17.7088 10.7251 16.4672 10.6688 15.0336 10.7445C14.998 10.8775 14.9548 11.0069 14.9036 11.1324C16.322 11.1506 17.5696 11.2864 18.3228 11.4052C18.3056 11.5366 18.2856 11.6668 18.2624 11.7959C17.4976 11.6748 16.194 11.533 14.7108 11.5259C14.0448 12.6652 12.6228 13.4083 10.4 13.495V13.5073C11.44 13.5073 12.4 15.0512 12.4 16.1201V18.2578C12.4 18.5836 12.5992 18.8635 12.8836 18.9846C16.548 17.7843 19.2 14.3639 19.2 10.3403C19.2 5.31976 15.0732 1.23511 10 1.23511C4.92685 1.23511 0.800049 5.31976 0.800049 10.3403C0.800049 14.3639 3.45205 17.7843 7.11645 18.9846Z" fill="#B8B8B8"/>
</svg>
