<svg width="20" height="20" viewBox="0 0 20 20" fill="none" xmlns="http://www.w3.org/2000/svg">
<rect width="20" height="19.7938" transform="translate(0 0.0617676)" fill="#B8B8B8"/>
<path d="M3.20005 1.25317C1.81205 1.25317 0.803955 2.07638 0.803955 3.20859C0.803955 4.34475 1.83605 5.2042 3.20005 5.2042C4.58805 5.2042 5.59614 4.3651 5.59614 3.18539C5.53214 2.04923 4.54405 1.25317 3.20005 1.25317ZM1.20005 5.99982C0.980049 5.99982 0.800049 6.17797 0.800049 6.3957V17.8761C0.800049 18.0938 0.980049 18.272 1.20005 18.272H5.20005C5.42005 18.272 5.60005 18.0938 5.60005 17.8761V6.3957C5.60005 6.17797 5.42005 5.99982 5.20005 5.99982H1.20005ZM7.20005 5.99982C6.98005 5.99982 6.80005 6.17797 6.80005 6.3957V17.8761C6.80005 18.0938 6.98005 18.272 7.20005 18.272H10.8C11.0208 18.272 11.2 18.0946 11.2 17.8761V11.938V11.839V11.74C11.2 10.8018 11.9283 10.0376 12.8563 9.96632C12.9043 9.9584 12.952 9.95858 13 9.95858C13.048 9.95858 13.0958 9.9584 13.1438 9.96632C14.0718 10.0376 14.8 10.8018 14.8 11.74V17.8761C14.8 18.0946 14.9792 18.272 15.2 18.272H18.8C19.02 18.272 19.2 18.0938 19.2 17.8761V11.1462C19.2 8.58489 17.8117 5.99982 14.7157 5.99982C13.3077 5.99982 12.244 6.53831 11.6 6.98565V6.3957C11.6 6.17797 11.42 5.99982 11.2 5.99982H7.20005Z" fill="black"/>
</svg>
