<svg width="472" height="38" viewBox="0 0 472 38" fill="none" xmlns="http://www.w3.org/2000/svg">
<path d="M6.10405 37.288C5.04805 37.288 3.97605 37.192 2.88805 37C1.83205 36.808 0.952047 36.584 0.248047 36.328V30.664C0.920047 30.728 1.62405 30.792 2.36005 30.856C3.09605 30.888 3.80005 30.904 4.47205 30.904C5.30405 30.904 5.99205 30.776 6.53605 30.52C7.11205 30.264 7.52805 29.88 7.78405 29.368C8.07205 28.824 8.21605 28.104 8.21605 27.208V1.48001H15.32V28.264C15.32 30.28 15 31.96 14.36 33.304C13.752 34.648 12.76 35.656 11.384 36.328C10.04 36.968 8.28005 37.288 6.10405 37.288Z" fill="#141414"/>
<path d="M32.1823 37.24C30.0703 37.24 28.2623 37.032 26.7583 36.616C25.2543 36.168 24.0223 35.432 23.0623 34.408C22.1343 33.384 21.4463 32.024 20.9983 30.328C20.5823 28.632 20.3743 26.536 20.3743 24.04C20.3743 21.416 20.5823 19.256 20.9983 17.56C21.4463 15.832 22.1343 14.488 23.0623 13.528C24.0223 12.536 25.2543 11.848 26.7583 11.464C28.2943 11.048 30.1023 10.84 32.1823 10.84C34.3263 10.84 36.1503 11.048 37.6543 11.464C39.1583 11.88 40.3743 12.584 41.3023 13.576C42.2623 14.536 42.9503 15.88 43.3663 17.608C43.8143 19.304 44.0383 21.448 44.0383 24.04C44.0383 26.6 43.8303 28.744 43.4143 30.472C42.9983 32.168 42.3263 33.512 41.3983 34.504C40.4703 35.496 39.2383 36.2 37.7023 36.616C36.1983 37.032 34.3583 37.24 32.1823 37.24ZM32.1823 31.576C33.0463 31.576 33.7663 31.496 34.3423 31.336C34.9503 31.176 35.4303 30.856 35.7823 30.376C36.1663 29.864 36.4543 29.096 36.6463 28.072C36.8383 27.048 36.9343 25.704 36.9343 24.04C36.9343 22.344 36.8383 21 36.6463 20.008C36.4543 18.984 36.1663 18.232 35.7823 17.752C35.4303 17.24 34.9503 16.904 34.3423 16.744C33.7663 16.584 33.0463 16.504 32.1823 16.504C31.3503 16.504 30.6303 16.584 30.0223 16.744C29.4463 16.904 28.9663 17.24 28.5823 17.752C28.1983 18.232 27.9103 18.984 27.7183 20.008C27.5583 21 27.4783 22.344 27.4783 24.04C27.4783 25.704 27.5583 27.048 27.7183 28.072C27.9103 29.096 28.1983 29.864 28.5823 30.376C28.9663 30.856 29.4463 31.176 30.0223 31.336C30.6303 31.496 31.3503 31.576 32.1823 31.576Z" fill="#141414"/>
<path d="M54.2237 37.288C52.2717 37.288 50.6877 36.712 49.4717 35.56C48.2557 34.408 47.6477 32.808 47.6477 30.76V28.456C47.6477 26.504 48.3357 24.904 49.7117 23.656C51.0877 22.376 53.2317 21.736 56.1437 21.736H62.7197V19.96C62.7197 19.16 62.5757 18.504 62.2877 17.992C61.9997 17.448 61.4557 17.064 60.6557 16.84C59.8877 16.584 58.7037 16.456 57.1037 16.456H49.3757V12.328C50.6237 11.944 52.0637 11.608 53.6957 11.32C55.3597 11.032 57.3597 10.888 59.6957 10.888C61.8397 10.888 63.6637 11.144 65.1677 11.656C66.7037 12.168 67.8557 13.048 68.6237 14.296C69.4237 15.544 69.8237 17.272 69.8237 19.48V37H64.2077L63.0557 34.264C62.8317 34.52 62.4477 34.808 61.9037 35.128C61.3597 35.448 60.6877 35.784 59.8877 36.136C59.1197 36.456 58.2397 36.728 57.2477 36.952C56.2877 37.176 55.2797 37.288 54.2237 37.288ZM57.8237 32.344C58.1437 32.344 58.4957 32.312 58.8797 32.248C59.2957 32.152 59.7117 32.056 60.1277 31.96C60.5757 31.832 60.9757 31.72 61.3277 31.624C61.7117 31.496 62.0157 31.384 62.2397 31.288C62.4957 31.192 62.6557 31.128 62.7197 31.096V25.096L58.3997 25.384C57.1517 25.48 56.2237 25.8 55.6157 26.344C55.0397 26.888 54.7517 27.624 54.7517 28.552V29.608C54.7517 30.248 54.8797 30.776 55.1357 31.192C55.4237 31.608 55.7917 31.912 56.2397 32.104C56.7197 32.264 57.2477 32.344 57.8237 32.344ZM50.3837 6.80801C50.4797 5.272 50.7517 4.056 51.1997 3.16C51.6797 2.232 52.2877 1.576 53.0237 1.192C53.7597 0.776003 54.5597 0.568003 55.4237 0.568003C56.2237 0.568003 56.9277 0.680003 57.5357 0.904004C58.1757 1.128 58.7677 1.4 59.3117 1.72001C59.8557 2.00801 60.3677 2.264 60.8477 2.488C61.3277 2.712 61.8557 2.82401 62.4317 2.82401C63.0397 2.82401 63.5197 2.616 63.8717 2.2C64.2557 1.752 64.4637 1.128 64.4957 0.328003H68.0477C67.9517 2.472 67.4717 4.088 66.6077 5.176C65.7757 6.232 64.6077 6.76 63.1037 6.76C62.3037 6.76 61.5837 6.648 60.9437 6.424C60.3037 6.2 59.6957 5.944 59.1197 5.656C58.5757 5.336 58.0477 5.064 57.5357 4.84C57.0237 4.616 56.5277 4.504 56.0477 4.504C55.4077 4.504 54.9117 4.712 54.5597 5.128C54.2077 5.544 53.9997 6.104 53.9357 6.80801H50.3837Z" fill="#141414"/>
<path d="M86.1823 37.24C84.0703 37.24 82.2623 37.032 80.7583 36.616C79.2543 36.168 78.0223 35.432 77.0623 34.408C76.1343 33.384 75.4463 32.024 74.9983 30.328C74.5823 28.632 74.3743 26.536 74.3743 24.04C74.3743 21.416 74.5823 19.256 74.9983 17.56C75.4463 15.832 76.1343 14.488 77.0623 13.528C78.0223 12.536 79.2543 11.848 80.7583 11.464C82.2943 11.048 84.1023 10.84 86.1823 10.84C88.3263 10.84 90.1503 11.048 91.6543 11.464C93.1583 11.88 94.3743 12.584 95.3023 13.576C96.2623 14.536 96.9503 15.88 97.3663 17.608C97.8143 19.304 98.0383 21.448 98.0383 24.04C98.0383 26.6 97.8303 28.744 97.4143 30.472C96.9983 32.168 96.3263 33.512 95.3983 34.504C94.4703 35.496 93.2383 36.2 91.7023 36.616C90.1983 37.032 88.3583 37.24 86.1823 37.24ZM86.1823 31.576C87.0463 31.576 87.7663 31.496 88.3423 31.336C88.9503 31.176 89.4303 30.856 89.7823 30.376C90.1663 29.864 90.4543 29.096 90.6463 28.072C90.8383 27.048 90.9343 25.704 90.9343 24.04C90.9343 22.344 90.8383 21 90.6463 20.008C90.4543 18.984 90.1663 18.232 89.7823 17.752C89.4303 17.24 88.9503 16.904 88.3423 16.744C87.7663 16.584 87.0463 16.504 86.1823 16.504C85.3503 16.504 84.6303 16.584 84.0223 16.744C83.4463 16.904 82.9663 17.24 82.5823 17.752C82.1983 18.232 81.9103 18.984 81.7183 20.008C81.5583 21 81.4783 22.344 81.4783 24.04C81.4783 25.704 81.5583 27.048 81.7183 28.072C81.9103 29.096 82.1983 29.864 82.5823 30.376C82.9663 30.856 83.4463 31.176 84.0223 31.336C84.6303 31.496 85.3503 31.576 86.1823 31.576Z" fill="#141414"/>
<path d="M114.503 37L118.631 1.48001H125.447L133.607 28.696L141.719 1.48001H148.487L152.663 37H145.799L142.727 10.84L143.831 10.936L136.871 37H130.199L123.143 10.936L124.343 10.888L121.367 37H114.503Z" fill="#141414"/>
<path d="M162.505 37.288C160.553 37.288 158.969 36.712 157.753 35.56C156.537 34.408 155.929 32.808 155.929 30.76V28.456C155.929 26.504 156.617 24.904 157.993 23.656C159.369 22.376 161.513 21.736 164.425 21.736H171.001V19.96C171.001 19.16 170.857 18.504 170.569 17.992C170.281 17.448 169.737 17.064 168.937 16.84C168.169 16.584 166.985 16.456 165.385 16.456H157.657V12.328C158.905 11.944 160.345 11.608 161.977 11.32C163.641 11.032 165.641 10.888 167.977 10.888C170.121 10.888 171.945 11.144 173.449 11.656C174.985 12.168 176.137 13.048 176.905 14.296C177.705 15.544 178.105 17.272 178.105 19.48V37H172.489L171.337 34.264C171.113 34.52 170.729 34.808 170.185 35.128C169.641 35.448 168.969 35.784 168.169 36.136C167.401 36.456 166.521 36.728 165.529 36.952C164.569 37.176 163.561 37.288 162.505 37.288ZM166.105 32.344C166.425 32.344 166.777 32.312 167.161 32.248C167.577 32.152 167.993 32.056 168.409 31.96C168.857 31.832 169.257 31.72 169.609 31.624C169.993 31.496 170.297 31.384 170.521 31.288C170.777 31.192 170.937 31.128 171.001 31.096V25.096L166.681 25.384C165.433 25.48 164.505 25.8 163.897 26.344C163.321 26.888 163.033 27.624 163.033 28.552V29.608C163.033 30.248 163.161 30.776 163.417 31.192C163.705 31.608 164.073 31.912 164.521 32.104C165.001 32.264 165.529 32.344 166.105 32.344Z" fill="#141414"/>
<path d="M183.424 37V11.224H188.896L190.528 15.16C191.456 13.976 192.496 12.968 193.648 12.136C194.832 11.304 196.224 10.888 197.824 10.888C198.176 10.888 198.528 10.904 198.88 10.936C199.264 10.968 199.616 11.032 199.936 11.128V18.424C199.456 18.36 198.944 18.312 198.4 18.28C197.888 18.216 197.392 18.184 196.912 18.184C195.984 18.184 195.136 18.296 194.368 18.52C193.632 18.712 192.944 19.016 192.304 19.432C191.696 19.816 191.104 20.328 190.528 20.968V37H183.424Z" fill="#141414"/>
<path d="M213.752 37.288C212.184 37.288 210.728 37.08 209.384 36.664C208.072 36.248 206.936 35.56 205.976 34.6C205.016 33.608 204.264 32.28 203.72 30.616C203.208 28.92 202.952 26.792 202.952 24.232C202.952 21.608 203.192 19.432 203.672 17.704C204.152 15.976 204.856 14.616 205.784 13.624C206.744 12.6 207.912 11.88 209.288 11.464C210.664 11.048 212.216 10.84 213.944 10.84C215.512 10.84 217 10.936 218.408 11.128C219.848 11.288 221.352 11.592 222.92 12.04V16.12H216.152C214.68 16.12 213.496 16.344 212.6 16.792C211.704 17.208 211.048 18.008 210.632 19.192C210.248 20.344 210.056 22.008 210.056 24.184C210.056 26.328 210.248 27.96 210.632 29.08C211.048 30.2 211.704 30.952 212.6 31.336C213.528 31.72 214.744 31.912 216.248 31.912H223.304V35.944C222.504 36.2 221.576 36.44 220.52 36.664C219.464 36.856 218.344 37 217.16 37.096C216.008 37.224 214.872 37.288 213.752 37.288Z" fill="#141414"/>
<path d="M238.292 37.24C236.18 37.24 234.372 37.032 232.868 36.616C231.364 36.168 230.132 35.432 229.172 34.408C228.244 33.384 227.556 32.024 227.108 30.328C226.692 28.632 226.484 26.536 226.484 24.04C226.484 21.416 226.692 19.256 227.108 17.56C227.556 15.832 228.244 14.488 229.172 13.528C230.132 12.536 231.364 11.848 232.868 11.464C234.404 11.048 236.212 10.84 238.292 10.84C240.436 10.84 242.26 11.048 243.764 11.464C245.268 11.88 246.484 12.584 247.412 13.576C248.372 14.536 249.06 15.88 249.476 17.608C249.924 19.304 250.148 21.448 250.148 24.04C250.148 26.6 249.94 28.744 249.524 30.472C249.108 32.168 248.436 33.512 247.508 34.504C246.58 35.496 245.348 36.2 243.812 36.616C242.308 37.032 240.468 37.24 238.292 37.24ZM238.292 31.576C239.156 31.576 239.876 31.496 240.452 31.336C241.06 31.176 241.54 30.856 241.892 30.376C242.276 29.864 242.564 29.096 242.756 28.072C242.948 27.048 243.044 25.704 243.044 24.04C243.044 22.344 242.948 21 242.756 20.008C242.564 18.984 242.276 18.232 241.892 17.752C241.54 17.24 241.06 16.904 240.452 16.744C239.876 16.584 239.156 16.504 238.292 16.504C237.46 16.504 236.74 16.584 236.132 16.744C235.556 16.904 235.076 17.24 234.692 17.752C234.308 18.232 234.02 18.984 233.828 20.008C233.668 21 233.588 22.344 233.588 24.04C233.588 25.704 233.668 27.048 233.828 28.072C234.02 29.096 234.308 29.864 234.692 30.376C235.076 30.856 235.556 31.176 236.132 31.336C236.74 31.496 237.46 31.576 238.292 31.576Z" fill="#141414"/>
<path d="M264.221 37.288C263.421 37.288 262.557 37.256 261.629 37.192C260.701 37.16 259.773 37.096 258.845 37C257.917 36.904 257.053 36.792 256.253 36.664C255.453 36.504 254.781 36.328 254.237 36.136V31.96H265.661C266.333 31.96 266.877 31.912 267.293 31.816C267.741 31.688 268.061 31.48 268.253 31.192C268.477 30.872 268.589 30.424 268.589 29.848V29.032C268.589 28.392 268.381 27.896 267.965 27.544C267.549 27.192 266.781 27.016 265.661 27.016H261.629C260.157 27.016 258.829 26.792 257.645 26.344C256.461 25.896 255.517 25.16 254.813 24.136C254.141 23.112 253.805 21.736 253.805 20.008V18.52C253.805 16.888 254.125 15.512 254.765 14.392C255.405 13.272 256.477 12.424 257.981 11.848C259.485 11.272 261.549 10.984 264.173 10.984C265.229 10.984 266.349 11.048 267.533 11.176C268.749 11.272 269.885 11.416 270.941 11.608C272.029 11.768 272.893 11.96 273.533 12.184V16.36H262.733C261.805 16.36 261.101 16.52 260.621 16.84C260.141 17.128 259.901 17.688 259.901 18.52V19.288C259.901 19.864 260.013 20.296 260.237 20.584C260.461 20.84 260.797 21.032 261.245 21.16C261.725 21.256 262.317 21.304 263.021 21.304H267.149C269.773 21.304 271.677 21.912 272.861 23.128C274.077 24.312 274.685 25.96 274.685 28.072V30.376C274.685 32.104 274.269 33.48 273.437 34.504C272.637 35.496 271.453 36.216 269.885 36.664C268.349 37.08 266.461 37.288 264.221 37.288Z" fill="#141414"/>
<path d="M291.806 37V1.48001H306.782C307.934 1.48001 309.102 1.62401 310.286 1.91201C311.502 2.168 312.606 2.712 313.598 3.544C314.622 4.344 315.438 5.56 316.046 7.192C316.686 8.824 317.006 10.984 317.006 13.672C317.006 16.36 316.686 18.536 316.046 20.2C315.438 21.864 314.638 23.128 313.646 23.992C312.654 24.856 311.582 25.432 310.43 25.72C309.278 26.008 308.158 26.152 307.07 26.152C306.494 26.152 305.822 26.136 305.054 26.104C304.286 26.04 303.502 25.96 302.702 25.864C301.934 25.768 301.214 25.688 300.542 25.624C299.87 25.528 299.326 25.448 298.91 25.384V37H291.806ZM298.91 19.768H305.966C306.798 19.768 307.502 19.576 308.078 19.192C308.686 18.776 309.134 18.136 309.422 17.272C309.71 16.376 309.854 15.192 309.854 13.72C309.854 12.28 309.694 11.144 309.374 10.312C309.086 9.448 308.654 8.82401 308.078 8.44C307.534 8.056 306.878 7.864 306.11 7.864H298.91V19.768Z" fill="#141414"/>
<path d="M326.755 37.288C324.803 37.288 323.219 36.712 322.003 35.56C320.787 34.408 320.179 32.808 320.179 30.76V28.456C320.179 26.504 320.867 24.904 322.243 23.656C323.619 22.376 325.763 21.736 328.675 21.736H335.251V19.96C335.251 19.16 335.107 18.504 334.819 17.992C334.531 17.448 333.987 17.064 333.187 16.84C332.419 16.584 331.235 16.456 329.635 16.456H321.907V12.328C323.155 11.944 324.595 11.608 326.227 11.32C327.891 11.032 329.891 10.888 332.227 10.888C334.371 10.888 336.195 11.144 337.699 11.656C339.235 12.168 340.387 13.048 341.155 14.296C341.955 15.544 342.355 17.272 342.355 19.48V37H336.739L335.587 34.264C335.363 34.52 334.979 34.808 334.435 35.128C333.891 35.448 333.219 35.784 332.419 36.136C331.651 36.456 330.771 36.728 329.779 36.952C328.819 37.176 327.811 37.288 326.755 37.288ZM330.355 32.344C330.675 32.344 331.027 32.312 331.411 32.248C331.827 32.152 332.243 32.056 332.659 31.96C333.107 31.832 333.507 31.72 333.859 31.624C334.243 31.496 334.547 31.384 334.771 31.288C335.027 31.192 335.187 31.128 335.251 31.096V25.096L330.931 25.384C329.683 25.48 328.755 25.8 328.147 26.344C327.571 26.888 327.283 27.624 327.283 28.552V29.608C327.283 30.248 327.411 30.776 327.667 31.192C327.955 31.608 328.323 31.912 328.771 32.104C329.251 32.264 329.779 32.344 330.355 32.344Z" fill="#141414"/>
<path d="M357.706 37.288C356.138 37.288 354.682 37.08 353.338 36.664C352.026 36.248 350.89 35.56 349.93 34.6C348.97 33.608 348.218 32.28 347.674 30.616C347.162 28.92 346.906 26.792 346.906 24.232C346.906 21.608 347.146 19.432 347.626 17.704C348.106 15.976 348.81 14.616 349.738 13.624C350.698 12.6 351.866 11.88 353.242 11.464C354.618 11.048 356.17 10.84 357.898 10.84C359.466 10.84 360.954 10.936 362.362 11.128C363.802 11.288 365.306 11.592 366.874 12.04V16.12H360.106C358.634 16.12 357.45 16.344 356.554 16.792C355.658 17.208 355.002 18.008 354.586 19.192C354.202 20.344 354.01 22.008 354.01 24.184C354.01 26.328 354.202 27.96 354.586 29.08C355.002 30.2 355.658 30.952 356.554 31.336C357.482 31.72 358.698 31.912 360.202 31.912H367.258V35.944C366.458 36.2 365.53 36.44 364.474 36.664C363.418 36.856 362.298 37 361.114 37.096C359.962 37.224 358.826 37.288 357.706 37.288Z" fill="#141414"/>
<path d="M371.205 37V0.424005H378.309V13.864C379.237 13.096 380.437 12.392 381.909 11.752C383.413 11.112 384.949 10.792 386.517 10.792C388.469 10.792 390.021 11.176 391.173 11.944C392.325 12.712 393.157 13.784 393.669 15.16C394.181 16.536 394.437 18.136 394.437 19.96V37H387.333V20.872C387.333 20.04 387.173 19.352 386.853 18.808C386.533 18.264 386.101 17.864 385.557 17.608C385.013 17.32 384.373 17.176 383.637 17.176C382.965 17.176 382.309 17.272 381.669 17.464C381.061 17.624 380.469 17.848 379.893 18.136C379.349 18.424 378.821 18.744 378.309 19.096V37H371.205Z" fill="#141414"/>
<path d="M410.6 37.24C407.752 37.24 405.48 36.872 403.784 36.136C402.088 35.368 400.856 34.024 400.088 32.104C399.352 30.184 398.984 27.528 398.984 24.136C398.984 20.648 399.336 17.944 400.04 16.024C400.744 14.104 401.928 12.76 403.592 11.992C405.256 11.224 407.512 10.84 410.36 10.84C412.92 10.84 414.968 11.096 416.504 11.608C418.04 12.12 419.144 13.016 419.816 14.296C420.52 15.576 420.872 17.384 420.872 19.72C420.872 21.448 420.52 22.824 419.816 23.848C419.144 24.84 418.184 25.56 416.936 26.008C415.688 26.424 414.216 26.632 412.52 26.632H406.04C406.104 27.944 406.296 29 406.616 29.8C406.968 30.568 407.592 31.128 408.488 31.48C409.416 31.8 410.744 31.96 412.472 31.96H420.008V36.136C418.76 36.392 417.384 36.648 415.88 36.904C414.408 37.128 412.648 37.24 410.6 37.24ZM405.944 22.408H411.8C412.76 22.408 413.464 22.216 413.912 21.832C414.36 21.448 414.584 20.76 414.584 19.768C414.584 18.84 414.44 18.104 414.152 17.56C413.864 16.984 413.416 16.584 412.808 16.36C412.2 16.104 411.384 15.976 410.36 15.976C409.272 15.976 408.408 16.168 407.768 16.552C407.128 16.904 406.664 17.544 406.376 18.472C406.088 19.4 405.944 20.712 405.944 22.408Z" fill="#141414"/>
<path d="M435.565 37.288C433.997 37.288 432.541 37.08 431.197 36.664C429.885 36.248 428.749 35.56 427.789 34.6C426.829 33.608 426.077 32.28 425.533 30.616C425.021 28.92 424.765 26.792 424.765 24.232C424.765 21.608 425.005 19.432 425.485 17.704C425.965 15.976 426.669 14.616 427.597 13.624C428.557 12.6 429.725 11.88 431.101 11.464C432.477 11.048 434.029 10.84 435.757 10.84C437.325 10.84 438.813 10.936 440.221 11.128C441.661 11.288 443.165 11.592 444.733 12.04V16.12H437.965C436.493 16.12 435.309 16.344 434.413 16.792C433.517 17.208 432.861 18.008 432.445 19.192C432.061 20.344 431.869 22.008 431.869 24.184C431.869 26.328 432.061 27.96 432.445 29.08C432.861 30.2 433.517 30.952 434.413 31.336C435.341 31.72 436.557 31.912 438.061 31.912H445.117V35.944C444.317 36.2 443.389 36.44 442.333 36.664C441.277 36.856 440.157 37 438.973 37.096C437.821 37.224 436.685 37.288 435.565 37.288Z" fill="#141414"/>
<path d="M460.104 37.24C457.992 37.24 456.184 37.032 454.68 36.616C453.176 36.168 451.944 35.432 450.984 34.408C450.056 33.384 449.368 32.024 448.92 30.328C448.504 28.632 448.296 26.536 448.296 24.04C448.296 21.416 448.504 19.256 448.92 17.56C449.368 15.832 450.056 14.488 450.984 13.528C451.944 12.536 453.176 11.848 454.68 11.464C456.216 11.048 458.024 10.84 460.104 10.84C462.248 10.84 464.072 11.048 465.576 11.464C467.08 11.88 468.296 12.584 469.224 13.576C470.184 14.536 470.872 15.88 471.288 17.608C471.736 19.304 471.96 21.448 471.96 24.04C471.96 26.6 471.752 28.744 471.336 30.472C470.92 32.168 470.248 33.512 469.32 34.504C468.392 35.496 467.16 36.2 465.624 36.616C464.12 37.032 462.28 37.24 460.104 37.24ZM460.104 31.576C460.968 31.576 461.688 31.496 462.264 31.336C462.872 31.176 463.352 30.856 463.704 30.376C464.088 29.864 464.376 29.096 464.568 28.072C464.76 27.048 464.856 25.704 464.856 24.04C464.856 22.344 464.76 21 464.568 20.008C464.376 18.984 464.088 18.232 463.704 17.752C463.352 17.24 462.872 16.904 462.264 16.744C461.688 16.584 460.968 16.504 460.104 16.504C459.272 16.504 458.552 16.584 457.944 16.744C457.368 16.904 456.888 17.24 456.504 17.752C456.12 18.232 455.832 18.984 455.64 20.008C455.48 21 455.4 22.344 455.4 24.04C455.4 25.704 455.48 27.048 455.64 28.072C455.832 29.096 456.12 29.864 456.504 30.376C456.888 30.856 457.368 31.176 457.944 31.336C458.552 31.496 459.272 31.576 460.104 31.576Z" fill="#141414"/>
</svg>
