<svg width="24" height="24" viewBox="0 0 24 24" fill="none" xmlns="http://www.w3.org/2000/svg">
<g clip-path="url(#clip0_15_182)">
<path d="M12.65 15.5919C12.79 15.2368 12.7 14.8324 12.42 14.5562L10.33 12.5241L10.36 12.4945C12.1 10.5809 13.34 8.38112 14.07 6.05314H16.01C16.55 6.05314 17 5.60925 17 5.07658V5.05685C17 4.52418 16.55 4.08028 16.01 4.08028H10V3.09385C10 2.55132 9.55 2.10742 9 2.10742C8.45 2.10742 8 2.55132 8 3.09385V4.08028H1.99C1.45 4.08028 1 4.52418 1 5.05685C1 5.59938 1.45 6.03341 1.99 6.03341H12.17C11.5 7.94709 10.44 9.75225 9 11.3305C8.19 10.4526 7.51 9.49578 6.94 8.48962C6.78 8.20356 6.49 8.026 6.16 8.026C5.47 8.026 5.03 8.76582 5.37 9.35768C6 10.4723 6.77 11.5377 7.67 12.5241L3.3 16.7756C2.9 17.1603 2.9 17.7917 3.3 18.1764C3.69 18.5611 4.32 18.5611 4.72 18.1764L9 13.9446L11.02 15.9372C11.53 16.4403 12.4 16.2528 12.65 15.5919V15.5919ZM17.5 9.99886C16.9 9.99886 16.36 10.3638 16.15 10.9261L12.48 20.5931C12.24 21.1948 12.7 21.836 13.35 21.836C13.74 21.836 14.09 21.5993 14.23 21.2343L15.12 18.8767H19.87L20.77 21.2343C20.91 21.5894 21.26 21.836 21.65 21.836C22.3 21.836 22.76 21.1948 22.53 20.5931L18.86 10.9261C18.64 10.3638 18.1 9.99886 17.5 9.99886V9.99886ZM15.88 16.9039L17.5 12.6326L19.12 16.9039H15.88V16.9039Z" fill="url(#paint0_linear_15_182)"/>
</g>
<defs>
<linearGradient id="paint0_linear_15_182" x1="11.795" y1="2.10742" x2="11.795" y2="21.836" gradientUnits="userSpaceOnUse">
<stop stop-color="#679DDD"/>
<stop offset="1" stop-color="#0A91DD"/>
</linearGradient>
<clipPath id="clip0_15_182">
<rect width="24" height="23.6743" fill="white" transform="translate(0 0.134521)"/>
</clipPath>
</defs>
</svg>
