<svg width="15" height="20" viewBox="0 0 15 20" fill="none" xmlns="http://www.w3.org/2000/svg">
<path d="M7.5 6.10352e-05C3.36445 6.10352e-05 0 3.34706 0 7.46114C0 13.5908 6.75347 19.576 7.04107 19.8278C7.17218 19.9426 7.33605 20.0001 7.5 20.0001C7.66395 20.0001 7.82782 19.9427 7.95899 19.8278C8.24646 19.576 15 13.5909 15 7.46114C15 3.34706 11.6356 6.10352e-05 7.5 6.10352e-05ZM7.5 18.363C6.00688 16.9242 1.3889 12.0984 1.3889 7.46114C1.3889 4.10868 4.13034 1.38121 7.5 1.38121C10.8697 1.38121 13.6111 4.10868 13.6111 7.46114C13.6111 12.0983 8.99312 16.9241 7.5 18.363Z" fill="#525252"/>
<path d="M7.50002 3.98544C5.58542 3.98544 4.02783 5.54464 4.02783 7.46113C4.02783 9.3777 5.58542 10.9368 7.50002 10.9368C9.41462 10.9368 10.9722 9.3777 10.9722 7.46113C10.9722 5.54464 9.41462 3.98544 7.50002 3.98544ZM7.50002 9.55568C6.35125 9.55568 5.41667 8.61608 5.41667 7.46113C5.41667 6.30625 6.35125 5.36659 7.50002 5.36659C8.64879 5.36659 9.58337 6.30618 9.58337 7.46113C9.58337 8.61608 8.64879 9.55568 7.50002 9.55568Z" fill="#525252"/>
</svg>
