<svg width="24" height="25" viewBox="0 0 24 25" fill="none" xmlns="http://www.w3.org/2000/svg">
<g clip-path="url(#clip0_15_167)">
<path d="M17.5 4.88049C15.55 4.88049 13.45 5.27507 12 6.36014C10.55 5.27507 8.45 4.88049 6.5 4.88049C5.05 4.88049 3.51 5.09751 2.22 5.65977C1.49 5.98529 1 6.68566 1 7.48467V18.6116C1 19.894 2.22 20.8409 3.48 20.5253C4.46 20.2787 5.5 20.1702 6.5 20.1702C8.06 20.1702 9.72 20.4266 11.06 21.0777C11.66 21.3736 12.34 21.3736 12.93 21.0777C14.27 20.4168 15.93 20.1702 17.49 20.1702C18.49 20.1702 19.53 20.2787 20.51 20.5253C21.77 20.8508 22.99 19.9038 22.99 18.6116V7.48467C22.99 6.68566 22.5 5.98529 21.77 5.65977C20.49 5.09751 18.95 4.88049 17.5 4.88049ZM21 17.4377C21 18.0592 20.42 18.513 19.8 18.4044C19.05 18.2663 18.27 18.2072 17.5 18.2072C15.8 18.2072 13.35 18.8483 12 19.6868V8.333C13.35 7.49453 15.8 6.85335 17.5 6.85335C18.42 6.85335 19.33 6.94213 20.2 7.12955C20.66 7.2282 21 7.63263 21 8.09626V17.4377Z" fill="url(#paint0_linear_15_167)"/>
<path d="M13.9799 11.3022C13.6599 11.3022 13.3699 11.1049 13.2699 10.7892C13.1399 10.4045 13.3599 9.98036 13.7499 9.86198C15.2899 9.36877 17.2799 9.21094 19.1099 9.41809C19.5199 9.46741 19.8199 9.83239 19.7699 10.2368C19.7199 10.6413 19.3499 10.9372 18.9399 10.8879C17.3199 10.7004 15.5499 10.8484 14.2099 11.2726C14.1299 11.2824 14.0499 11.3022 13.9799 11.3022Z" fill="url(#paint1_linear_15_167)"/>
<path d="M13.9799 13.9261C13.6599 13.9261 13.3699 13.7288 13.2699 13.4131C13.1399 13.0284 13.3599 12.6043 13.7499 12.4859C15.2799 11.9927 17.2799 11.8348 19.1099 12.042C19.5199 12.0913 19.8199 12.4563 19.7699 12.8607C19.7199 13.2652 19.3499 13.5611 18.9399 13.5118C17.3199 13.3244 15.5499 13.4723 14.2099 13.8965C14.1299 13.9162 14.0499 13.9261 13.9799 13.9261Z" fill="url(#paint2_linear_15_167)"/>
<path d="M13.9799 16.55C13.6599 16.55 13.3699 16.3527 13.2699 16.037C13.1399 15.6523 13.3599 15.2282 13.7499 15.1098C15.2799 14.6166 17.2799 14.4587 19.1099 14.6659C19.5199 14.7152 19.8199 15.0802 19.7699 15.4846C19.7199 15.8891 19.3499 16.1751 18.9399 16.1357C17.3199 15.9483 15.5499 16.0962 14.2099 16.5204C14.1299 16.5401 14.0499 16.55 13.9799 16.55Z" fill="url(#paint3_linear_15_167)"/>
</g>
<defs>
<linearGradient id="paint0_linear_15_167" x1="11.995" y1="4.88049" x2="11.995" y2="21.2996" gradientUnits="userSpaceOnUse">
<stop stop-color="#679DDD"/>
<stop offset="1" stop-color="#0A91DD"/>
</linearGradient>
<linearGradient id="paint1_linear_15_167" x1="16.5039" y1="9.32922" x2="16.5039" y2="11.3022" gradientUnits="userSpaceOnUse">
<stop stop-color="#679DDD"/>
<stop offset="1" stop-color="#0A91DD"/>
</linearGradient>
<linearGradient id="paint2_linear_15_167" x1="16.5039" y1="11.9531" x2="16.5039" y2="13.9261" gradientUnits="userSpaceOnUse">
<stop stop-color="#679DDD"/>
<stop offset="1" stop-color="#0A91DD"/>
</linearGradient>
<linearGradient id="paint3_linear_15_167" x1="16.5039" y1="14.577" x2="16.5039" y2="16.55" gradientUnits="userSpaceOnUse">
<stop stop-color="#679DDD"/>
<stop offset="1" stop-color="#0A91DD"/>
</linearGradient>
<clipPath id="clip0_15_167">
<rect width="24" height="23.6743" fill="white" transform="translate(0 0.441528)"/>
</clipPath>
</defs>
</svg>
