<svg width="20" height="21" viewBox="0 0 20 21" fill="none" xmlns="http://www.w3.org/2000/svg">
<g clip-path="url(#clip0_303_5)">
<path d="M20 10.4875C20 15.8124 15.6044 20.1291 10.181 20.1291C8.45991 20.1291 6.84319 19.6935 5.43581 18.9305L0 20.639L1.77194 15.4645C0.878469 14.0123 0.363909 12.307 0.363909 10.4868C0.364561 5.16194 4.75886 0.845215 10.1823 0.845215C15.605 0.846506 20 5.16259 20 10.4875ZM10.1803 2.38266C5.62885 2.38266 1.9265 6.01909 1.9265 10.4894C1.9265 12.2631 2.51084 13.9051 3.49887 15.2412L2.46845 18.2509L5.63929 17.2537C6.94362 18.1005 8.50426 18.5936 10.1803 18.5936C14.7318 18.5936 18.4355 14.9578 18.4355 10.4875C18.4368 6.01909 14.7324 2.38266 10.1803 2.38266ZM15.1394 12.7085C15.0781 12.611 14.9177 12.5516 14.6777 12.4329C14.4383 12.3141 13.2533 11.7429 13.0336 11.6654C12.8118 11.586 12.6514 11.546 12.491 11.7829C12.3325 12.0198 11.8707 12.5516 11.7292 12.7104C11.589 12.8685 11.4488 12.8885 11.2081 12.7717C10.9675 12.6517 10.1914 12.4038 9.27186 11.5989C8.55643 10.9716 8.07317 10.199 7.93361 9.9621C7.79209 9.72587 7.91926 9.59807 8.03861 9.4806C8.14622 9.3741 8.27926 9.20435 8.39991 9.06558C8.52056 8.9281 8.56034 8.83064 8.64056 8.67251C8.71947 8.51437 8.67969 8.37689 8.62034 8.25749C8.56034 8.13873 8.07969 6.97693 7.87818 6.50382C7.67796 6.03135 7.47775 6.10945 7.33688 6.10945C7.19666 6.10945 7.03623 6.09009 6.8758 6.09009C6.71536 6.09009 6.4545 6.14753 6.23472 6.38441C6.01494 6.62129 5.39277 7.1925 5.39277 8.35559C5.39277 9.51997 6.25428 10.6424 6.37493 10.7999C6.49623 10.9567 8.04057 13.4217 10.4868 14.3679C12.9344 15.3135 12.9344 14.9979 13.3753 14.9578C13.8175 14.9178 14.7996 14.3866 14.9992 13.8354C15.2001 13.2816 15.2001 12.8072 15.1394 12.7085Z" fill="#B8B8B8"/>
</g>
<defs>
<clipPath id="clip0_303_5">
<rect width="20" height="19.7938" fill="white" transform="translate(0 0.845215)"/>
</clipPath>
</defs>
</svg>
